<?xml version="1.0" encoding="UTF-8" standalone="no"?>
<!DOCTYPE svg PUBLIC "-//W3C//DTD SVG 1.1//EN"
 "http://www.w3.org/Graphics/SVG/1.1/DTD/svg11.dtd">
<!-- Generated by graphviz version 2.42.4 (0)
 -->
<!-- Title: packet_flow Pages: 1 -->
<svg width="518pt" height="682pt"
 viewBox="0.00 0.00 518.00 681.64" xmlns="http://www.w3.org/2000/svg" xmlns:xlink="http://www.w3.org/1999/xlink">
<g id="graph0" class="graph" transform="scale(1 1) rotate(0) translate(18 663.64)">
<title>packet_flow</title>
<text text-anchor="middle" x="241" y="-625.64" font-family="DejaVu Sans" font-size="20.00">Luồng gói HR → FIN khi policy chọn GRE Path A</text>
<!-- HR -->
<g id="node1" class="node">
<title>HR</title>
<path fill="#e9f8ef" stroke="#3d5368" d="M331.76,-615.64C331.76,-615.64 243.76,-615.64 243.76,-615.64 237.76,-615.64 231.76,-609.64 231.76,-603.64 231.76,-603.64 231.76,-582.64 231.76,-582.64 231.76,-576.64 237.76,-570.64 243.76,-570.64 243.76,-570.64 331.76,-570.64 331.76,-570.64 337.76,-570.64 343.76,-576.64 343.76,-582.64 343.76,-582.64 343.76,-603.64 343.76,-603.64 343.76,-609.64 337.76,-615.64 331.76,-615.64"/>
<text text-anchor="middle" x="287.76" y="-601.64" font-family="DejaVu Sans" font-size="10.00">1. HR host</text>
<text text-anchor="middle" x="287.76" y="-590.64" font-family="DejaVu Sans" font-size="10.00">192.168.10.10</text>
<text text-anchor="middle" x="287.76" y="-579.64" font-family="DejaVu Sans" font-size="10.00">Default gateway .1</text>
</g>
<!-- ACCESS -->
<g id="node2" class="node">
<title>ACCESS</title>
<path fill="#e8f1fb" stroke="#3d5368" d="M365.26,-520.64C365.26,-520.64 210.26,-520.64 210.26,-520.64 204.26,-520.64 198.26,-514.64 198.26,-508.64 198.26,-508.64 198.26,-496.64 198.26,-496.64 198.26,-490.64 204.26,-484.64 210.26,-484.64 210.26,-484.64 365.26,-484.64 365.26,-484.64 371.26,-484.64 377.26,-490.64 377.26,-496.64 377.26,-496.64 377.26,-508.64 377.26,-508.64 377.26,-514.64 371.26,-520.64 365.26,-520.64"/>
<text text-anchor="middle" x="287.76" y="-505.64" font-family="DejaVu Sans" font-size="10.00">2. CPE&#45;HR access0</text>
<text text-anchor="middle" x="287.76" y="-494.64" font-family="DejaVu Sans" font-size="10.00">ARP gateway do controller trả lời</text>
</g>
<!-- HR&#45;&gt;ACCESS -->
<g id="edge1" class="edge">
<title>HR&#45;&gt;ACCESS</title>
<path fill="none" stroke="#40566a" stroke-width="1.6" d="M287.76,-570.3C287.76,-570.3 287.76,-530.91 287.76,-530.91"/>
<polygon fill="#40566a" stroke="#40566a" stroke-width="1.6" points="291.26,-530.91 287.76,-520.91 284.26,-530.91 291.26,-530.91"/>
<text text-anchor="middle" x="313.76" y="-543.44" font-family="DejaVu Sans" font-size="9.00">Ethernet/IP</text>
</g>
<!-- POLICY -->
<g id="node3" class="node">
<title>POLICY</title>
<path fill="#f1eafe" stroke="#3d5368" d="M261.76,-434.64C261.76,-434.64 173.76,-434.64 173.76,-434.64 167.76,-434.64 161.76,-428.64 161.76,-422.64 161.76,-422.64 161.76,-401.64 161.76,-401.64 161.76,-395.64 167.76,-389.64 173.76,-389.64 173.76,-389.64 261.76,-389.64 261.76,-389.64 267.76,-389.64 273.76,-395.64 273.76,-401.64 273.76,-401.64 273.76,-422.64 273.76,-422.64 273.76,-428.64 267.76,-434.64 261.76,-434.64"/>
<text text-anchor="middle" x="217.76" y="-420.64" font-family="DejaVu Sans" font-size="10.00">3. OpenFlow policy</text>
<text text-anchor="middle" x="217.76" y="-409.64" font-family="DejaVu Sans" font-size="10.00">HR → FIN: ALLOW</text>
<text text-anchor="middle" x="217.76" y="-398.64" font-family="DejaVu Sans" font-size="10.00">Output g&#45;hf&#45;a</text>
</g>
<!-- ACCESS&#45;&gt;POLICY -->
<g id="edge2" class="edge">
<title>ACCESS&#45;&gt;POLICY</title>
<path fill="none" stroke="#40566a" stroke-width="1.6" d="M236.01,-484.33C236.01,-484.33 236.01,-444.93 236.01,-444.93"/>
<polygon fill="#40566a" stroke="#40566a" stroke-width="1.6" points="239.51,-444.93 236.01,-434.93 232.51,-444.93 239.51,-444.93"/>
<text text-anchor="middle" x="272.26" y="-457.44" font-family="DejaVu Sans" font-size="9.00">Packet&#45;In lần đầu</text>
</g>
<!-- IDS1 -->
<g id="node8" class="node">
<title>IDS1</title>
<path fill="#fff0e4" stroke="#3d5368" d="M404.26,-434.64C404.26,-434.64 313.26,-434.64 313.26,-434.64 307.26,-434.64 301.26,-428.64 301.26,-422.64 301.26,-422.64 301.26,-401.64 301.26,-401.64 301.26,-395.64 307.26,-389.64 313.26,-389.64 313.26,-389.64 404.26,-389.64 404.26,-389.64 410.26,-389.64 416.26,-395.64 416.26,-401.64 416.26,-401.64 416.26,-422.64 416.26,-422.64 416.26,-428.64 410.26,-434.64 404.26,-434.64"/>
<text text-anchor="middle" x="358.76" y="-420.64" font-family="DejaVu Sans" font-size="10.00">Suricata HR</text>
<text text-anchor="middle" x="358.76" y="-409.64" font-family="DejaVu Sans" font-size="10.00">nhận bản sao L7</text>
<text text-anchor="middle" x="358.76" y="-398.64" font-family="DejaVu Sans" font-size="10.00">trước encapsulation</text>
</g>
<!-- ACCESS&#45;&gt;IDS1 -->
<g id="edge7" class="edge">
<title>ACCESS&#45;&gt;IDS1</title>
<path fill="none" stroke="#c45d16" stroke-width="1.6" stroke-dasharray="5,2" d="M339.26,-484.33C339.26,-484.33 339.26,-444.93 339.26,-444.93"/>
<polygon fill="#c45d16" stroke="#c45d16" stroke-width="1.6" points="342.76,-444.93 339.26,-434.93 335.76,-444.93 342.76,-444.93"/>
<text text-anchor="middle" x="383.26" y="-457.44" font-family="DejaVu Sans" font-size="9.00">SPAN copy</text>
</g>
<!-- ENCAP -->
<g id="node4" class="node">
<title>ENCAP</title>
<path fill="#dceeff" stroke="#3d5368" d="M306.76,-339.64C306.76,-339.64 128.76,-339.64 128.76,-339.64 122.76,-339.64 116.76,-333.64 116.76,-327.64 116.76,-327.64 116.76,-306.64 116.76,-306.64 116.76,-300.64 122.76,-294.64 128.76,-294.64 128.76,-294.64 306.76,-294.64 306.76,-294.64 312.76,-294.64 318.76,-300.64 318.76,-306.64 318.76,-306.64 318.76,-327.64 318.76,-327.64 318.76,-333.64 312.76,-339.64 306.76,-339.64"/>
<text text-anchor="middle" x="217.76" y="-325.64" font-family="DejaVu Sans" font-size="10.00">4. OVS GRE encapsulation</text>
<text text-anchor="middle" x="217.76" y="-314.64" font-family="DejaVu Sans" font-size="10.00">Inner: 192.168.10.10 → 192.168.30.10</text>
<text text-anchor="middle" x="217.76" y="-303.64" font-family="DejaVu Sans" font-size="10.00">Outer: 10.65.0.2 → 10.65.0.18</text>
</g>
<!-- POLICY&#45;&gt;ENCAP -->
<g id="edge3" class="edge">
<title>POLICY&#45;&gt;ENCAP</title>
<path fill="none" stroke="#40566a" stroke-width="1.6" d="M217.76,-389.63C217.76,-389.63 217.76,-349.82 217.76,-349.82"/>
<polygon fill="#40566a" stroke="#40566a" stroke-width="1.6" points="221.26,-349.82 217.76,-339.82 214.26,-349.82 221.26,-349.82"/>
<text text-anchor="middle" x="268.76" y="-362.44" font-family="DejaVu Sans" font-size="9.00">FlowMod + forwarding</text>
</g>
<!-- WAN -->
<g id="node5" class="node">
<title>WAN</title>
<ellipse fill="#fff2c2" stroke="#3d5368" cx="217.76" cy="-212.82" rx="152.06" ry="31.64"/>
<text text-anchor="middle" x="217.76" y="-221.32" font-family="DejaVu Sans" font-size="10.00">5. Abilene underlay</text>
<text text-anchor="middle" x="217.76" y="-210.32" font-family="DejaVu Sans" font-size="10.00">FRR/OSPF chỉ thấy outer IP</text>
<text text-anchor="middle" x="217.76" y="-199.32" font-family="DejaVu Sans" font-size="10.00">HTB → NetEm → CoDel tác động gói thật</text>
</g>
<!-- ENCAP&#45;&gt;WAN -->
<g id="edge4" class="edge">
<title>ENCAP&#45;&gt;WAN</title>
<path fill="none" stroke="#1677c8" stroke-width="2.6" d="M217.76,-294.5C217.76,-294.5 217.76,-254.91 217.76,-254.91"/>
<polygon fill="#1677c8" stroke="#1677c8" stroke-width="2.6" points="221.26,-254.91 217.76,-244.91 214.26,-254.91 221.26,-254.91"/>
<text text-anchor="middle" x="261.76" y="-267.44" font-family="DejaVu Sans" font-size="9.00">GRE, IP protocol 47</text>
</g>
<!-- DECAP -->
<g id="node6" class="node">
<title>DECAP</title>
<path fill="#dceeff" stroke="#3d5368" d="M287.76,-131C287.76,-131 147.76,-131 147.76,-131 141.76,-131 135.76,-125 135.76,-119 135.76,-119 135.76,-107 135.76,-107 135.76,-101 141.76,-95 147.76,-95 147.76,-95 287.76,-95 287.76,-95 293.76,-95 299.76,-101 299.76,-107 299.76,-107 299.76,-119 299.76,-119 299.76,-125 293.76,-131 287.76,-131"/>
<text text-anchor="middle" x="217.76" y="-116" font-family="DejaVu Sans" font-size="10.00">6. CPE&#45;FIN GRE decapsulation</text>
<text text-anchor="middle" x="217.76" y="-105" font-family="DejaVu Sans" font-size="10.00">Match in_port g&#45;hf&#45;a</text>
</g>
<!-- WAN&#45;&gt;DECAP -->
<g id="edge5" class="edge">
<title>WAN&#45;&gt;DECAP</title>
<path fill="none" stroke="#1677c8" stroke-width="2.6" d="M217.76,-180.96C217.76,-180.96 217.76,-141.21 217.76,-141.21"/>
<polygon fill="#1677c8" stroke="#1677c8" stroke-width="2.6" points="221.26,-141.21 217.76,-131.21 214.26,-141.21 221.26,-141.21"/>
<text text-anchor="middle" x="261.76" y="-153.8" font-family="DejaVu Sans" font-size="9.00">GRE, IP protocol 47</text>
</g>
<!-- FIN -->
<g id="node7" class="node">
<title>FIN</title>
<path fill="#e9f8ef" stroke="#3d5368" d="M192.26,-45C192.26,-45 109.26,-45 109.26,-45 103.26,-45 97.26,-39 97.26,-33 97.26,-33 97.26,-12 97.26,-12 97.26,-6 103.26,0 109.26,0 109.26,0 192.26,0 192.26,0 198.26,0 204.26,-6 204.26,-12 204.26,-12 204.26,-33 204.26,-33 204.26,-39 198.26,-45 192.26,-45"/>
<text text-anchor="middle" x="150.76" y="-31" font-family="DejaVu Sans" font-size="10.00">7. FIN host</text>
<text text-anchor="middle" x="150.76" y="-20" font-family="DejaVu Sans" font-size="10.00">192.168.30.10</text>
<text text-anchor="middle" x="150.76" y="-9" font-family="DejaVu Sans" font-size="10.00">Nhận inner packet</text>
</g>
<!-- DECAP&#45;&gt;FIN -->
<g id="edge6" class="edge">
<title>DECAP&#45;&gt;FIN</title>
<path fill="none" stroke="#40566a" stroke-width="1.6" d="M170.01,-94.69C170.01,-94.69 170.01,-55.29 170.01,-55.29"/>
<polygon fill="#40566a" stroke="#40566a" stroke-width="1.6" points="173.51,-55.29 170.01,-45.29 166.51,-55.29 173.51,-55.29"/>
<text text-anchor="middle" x="193.26" y="-67.8" font-family="DejaVu Sans" font-size="9.00">rewritten Ethernet</text>
</g>
<!-- IDS2 -->
<g id="node9" class="node">
<title>IDS2</title>
<path fill="#fff0e4" stroke="#3d5368" d="M326.26,-45C326.26,-45 243.26,-45 243.26,-45 237.26,-45 231.26,-39 231.26,-33 231.26,-33 231.26,-12 231.26,-12 231.26,-6 237.26,0 243.26,0 243.26,0 326.26,0 326.26,0 332.26,0 338.26,-6 338.26,-12 338.26,-12 338.26,-33 338.26,-33 338.26,-39 332.26,-45 326.26,-45"/>
<text text-anchor="middle" x="284.76" y="-31" font-family="DejaVu Sans" font-size="10.00">Suricata FIN</text>
<text text-anchor="middle" x="284.76" y="-20" font-family="DejaVu Sans" font-size="10.00">nhận bản sao L7</text>
<text text-anchor="middle" x="284.76" y="-9" font-family="DejaVu Sans" font-size="10.00">sau decapsulation</text>
</g>
<!-- DECAP&#45;&gt;IDS2 -->
<g id="edge8" class="edge">
<title>DECAP&#45;&gt;IDS2</title>
<path fill="none" stroke="#c45d16" stroke-width="1.6" stroke-dasharray="5,2" d="M265.51,-94.69C265.51,-94.69 265.51,-55.29 265.51,-55.29"/>
<polygon fill="#c45d16" stroke="#c45d16" stroke-width="1.6" points="269.01,-55.29 265.51,-45.29 262.01,-55.29 269.01,-55.29"/>
<text text-anchor="middle" x="309.26" y="-67.8" font-family="DejaVu Sans" font-size="9.00">SPAN copy</text>
</g>
</g>
</svg>
